<?xml version="1.0"?>
<svg xmlns="http://www.w3.org/2000/svg" height="512px" viewBox="0 0 60 60" width="512px" class=""><g><script xmlns="" id="metastreaminitscript" class="" style="">(function() {
    document.getElementById('metastreaminitscript').remove()

    const INIT_TIMEOUT = 5e3
    const isFirefox = navigator.userAgent.toLowerCase().includes('firefox')

    //=========================================================================
    // document.createElement proxy
    //=========================================================================

    window.__metastreamMediaElements = new Set()

    // Proxy document.createElement to trap media elements created in-memory
    const origCreateElement = document.createElement
    const proxyCreateElement = function() {
      const element = origCreateElement.apply(document, arguments)
      if (window.__metastreamMediaElements &amp;&amp; element instanceof HTMLMediaElement) {
        window.__metastreamMediaElements.add(element)
      }
      return element
    }
    proxyCreateElement.toString = origCreateElement.toString.bind(origCreateElement)
    document.createElement = proxyCreateElement

    setTimeout(() =&gt; {
      if (window.__metastreamMediaElements) {
        window.__metastreamMediaElements.clear()
        window.__metastreamMediaElements = undefined
      }
    }, INIT_TIMEOUT)

    //=========================================================================
    // navigator.mediaSession proxy (Firefox)
    //=========================================================================

    if (isFirefox) {
      // stub out MediaSession API until Firefox supports this natively
      if (!navigator.mediaSession) {
        const noop = () =&gt; {}
        const mediaSessionStub = {
          __installedByMetastreamRemote__: true,
          setActionHandler: noop
        }
        Object.defineProperty(window.navigator, 'mediaSession', {
          value: mediaSessionStub,
          enumerable: false,
          writable: true
        })

        function MediaMetadata(metadata) {
          Object.assign(this, metadata)
        }
        window.MediaMetadata = MediaMetadata
      }

      const { mediaSession } = navigator

      // Capture action handlers for player.js proxy
      mediaSession._handlers = {}

      const _setActionHandler = mediaSession.setActionHandler
      mediaSession.setActionHandler = function(name, handler) {
        mediaSession._handlers[name] = handler
        _setActionHandler.apply(mediaSession, arguments)
      }
    }

    //=========================================================================
    // document.domain fix (Firefox)
    //=========================================================================

    if (isFirefox) {
      const domains = ['twitch.tv', 'crunchyroll.com']

      // Fix for setting document.domain in sandboxed iframe
      try {
        const { domain } = document
        if (domain &amp;&amp; domains.some(d =&gt; domain.includes(d))) {
          Object.defineProperty(document, 'domain', {
            value: domain,
            writable: true
          })
        }
      } catch (e) {}
    }

    //=========================================================================
    // Inline script embed prevention fix
    //=========================================================================

    const observeScripts = () =&gt; {
      const scriptSnippets = [
        { code: 'window.top !== window.self', replacement: 'false' },
        { code: 'self == top', replacement: 'true' },
        { code: 'top.location != window.location', replacement: 'false' }
      ]

      const getAddedScripts = mutationList =&gt;
        mutationList.reduce((scripts, mutation) =&gt; {
          if (mutation.type !== 'childList') return scripts
          const inlineScripts = Array.from(mutation.addedNodes).filter(
            node =&gt; node instanceof HTMLScriptElement &amp;&amp; node.innerHTML.length &gt; 0
          )
          return inlineScripts.length &gt; 0 ? [...scripts, ...inlineScripts] : scripts
        }, [])

      // Modifies inline scripts to allow embedding content in iframe
      const inlineScriptModifier = mutationsList =&gt; {
        const scripts = getAddedScripts(mutationsList)
        for (let script of scripts) {
          for (let snippet of scriptSnippets) {
            if (script.innerHTML.includes(snippet.code)) {
              script.innerHTML = script.innerHTML.split(snippet.code).join(snippet.replacement)
            }
          }
        }
      }

      const observer = new MutationObserver(inlineScriptModifier)
      observer.observe(document.documentElement, { childList: true, subtree: true })

      // Stop watching for changes after we finish loading
      window.addEventListener('load', () =&gt; observer.disconnect())
    }

    observeScripts()
  }());</script><g id="Page-1" fill="none" fill-rule="evenodd"><g id="020---Gas-Hob" fill="rgb(0,0,0)" fill-rule="nonzero"><path id="Shape" d="m18.55 19.85c.133956.0653399.2809588.0995266.43.1.3844318-.0009047.7343105-.2221057.9-.569 2.033286-3.9244115 4.7489887-7.4555022 8.02-10.428.3912724-.3813724.4040049-1.00619113.0285939-1.40318688s-.9999657-.41917681-1.4025939-.04981312c-3.4481577 3.1421845-6.308568 6.8738906-8.447 11.02-.2358286.4974038-.0253067 1.0918712.471 1.33z" data-original="#000000" class="" fill="#FFFFFF"/><path id="Shape" d="m1 60h58c.5522847 0 1-.4477153 1-1s-.4477153-1-1-1h-1v-10c.0020882-.796326-.3144184-1.5604067-.879-2.122l-4.586-4.586c-.755851-.7680809-1.8655872-1.0717595-2.9072062-.7955552s-1.8550755 1.0898526-2.1310343 2.1315366c-.2759587 1.0416841.0279815 2.1513487.7962405 2.9070186l3.707 3.708v8.757h-2v-4c-.0033074-3.3123376-2.6876624-5.9966926-6-6h-8v-4.041c1.0630773-.3755491 2.0880258-.8513583 3.061-1.421.034-.015.062-.038.095-.056 1.2665291-.7454242 2.4377807-1.6419959 3.488-2.67 3.439224-3.3741902 5.3705113-7.9939911 5.356-12.812 0-14.142-15.116-25.39-16.84-26.626-.6940737-.49744527-1.6279263-.49744527-2.322 0-1.692 1.214-16.538 12.258-16.833 26.192-.1007243 4.813707 1.7398607 9.465446 5.107 12.907 1.118645 1.1526108 2.3833951 2.1537873 3.762 2.978.014.008.027.018.042.026.9785829.5848491 2.0113806 1.073787 3.084 1.46v4.063h-8c-3.3123376.0033074-5.9966926 2.6876624-6 6v4h-2v-8.757l3.707-3.707c.768259-.7556699 1.0721992-1.8653345.7962405-2.9070186-.2759588-1.041684-1.0894153-1.8553323-2.1310343-2.1315366-1.04161903-.2762043-2.15135522.0274743-2.9072062.7955552l-4.586 4.585c-.56420452.5618459-.88064293 1.3257621-.879 2.122v10h-1c-.55228475 0-1 .4477153-1 1s.44771525 1 1 1zm52.707-11.878-4-4c-.3789722-.3923789-.3735524-1.0160848.0121814-1.4018186s1.0094397-.3911536 1.4018186-.0121814l4.586 4.585c.1875494.1874927.2929434.4418052.293.707v10h-2v-9.171c-.0000566-.2651948-.1054506-.5195073-.293-.707zm-31.624-7.272c-1.4038145-1.8754796-2.1373368-4.1679568-2.083-6.51.151-7.412 6.6-14.037 10-17.023 3.454 3.019 10 9.738 10 17.283.0032534 2.2460194-.7033955 4.4356158-2.019 6.256-.7570032.4402353-1.5494186.8165406-2.369 1.125.9073504-1.302489 1.3919437-2.852629 1.388-4.44 0-5.194-4.436-9.629-6.343-11.294-.3768631-.3293094-.9391369-.3293094-1.316 0-1.872 1.637-6.238 6-6.341 11.111-.0337671 1.6406315.4566697 3.2492641 1.4 4.592-.8009837-.3029962-1.5758914-.6708851-2.317-1.1zm4.373.494c-.9693551-1.0815955-1.4900272-2.4919875-1.456-3.944.076-3.819 3.137-7.286 5-9.047 1.892 1.786 5 5.313 5 9.19.0953606 2.7091683-1.8689761 5.0536019-4.553 5.434-.186 0-.369.021-.556.02-1.325364-.0480761-2.5704869-.6472574-3.435-1.653zm-12.451-14.735c.277-12.963 14.395-23.455 15.989-24.609 1.639 1.174 16.006 11.856 16.006 25 .0075225 4.1457635-1.6076517 8.1298598-4.5 11.1.3277646-1.1379213.496036-2.3158215.5-3.5 0-8.887-7.942-16.5-11.357-19.367-.3720039-.3127385-.9149961-.3127385-1.287 0-3.356 2.826-11.177 10.337-11.356 19.067-.0225242 1.2535764.1412627 2.5035469.486 3.709-2.9533269-3.0509151-4.5663857-7.1546576-4.481-11.4zm11.995 17.926c1.2327611.2890055 2.4929747.4448978 3.759.465h.241c1.3463384-.0042637 2.6879886-.1588888 4-.461v3.461h-8zm-14 10.465h4c.5522847 0 1-.4477153 1-1s-.4477153-1-1-1h-3.858c.4545933-1.7606851 2.0395884-2.9931852 3.858-3h28c1.8184116.0068148 3.4034067 1.2393149 3.858 3h-25.858c-.5522847 0-1 .4477153-1 1s.4477153 1 1 1h26v3h-36zm-8-7c-.00020875-.2655413.10520544-.5202623.293-.708l4.586-4.584c.39049985-.3903819 1.02350015-.3903819 1.414 0 .3897159.3903851.3897159 1.0226149 0 1.413l-4 4c-.18779456.1877377-.29320875.4424587-.293.708v9.171h-2.00000031z" data-original="#000000" class="" fill="#FFFFFF"/><circle id="Oval" cx="30" cy="6" r="1" data-original="#000000" class="" fill="#FFFFFF"/></g></g></g> </svg>
